<svg width="64" height="64" viewBox="0 0 64 64" fill="none" xmlns="http://www.w3.org/2000/svg">
<path d="M63.81 15.073L53.332 48.146L53.579 48.926C53.7392 49.4264 53.7985 49.9537 53.7535 50.4772C53.7086 51.0008 53.5602 51.5102 53.317 51.976C52.924 52.732 52.317 53.329 51.57 53.704L51.561 53.737L49.194 61.207C48.8722 62.2171 48.1632 63.0585 47.2223 63.5469C46.2814 64.0354 45.1853 64.131 44.174 63.813L32 59.957L19.826 63.813C18.8147 64.131 17.7186 64.0354 16.7777 63.5469C15.8368 63.0585 15.1278 62.2171 14.806 61.207L0.187997 15.074C0.02801 14.5735 -0.0311223 14.0462 0.0140214 13.5227C0.0591651 12.9991 0.207689 12.4897 0.450997 12.024C0.691609 11.5566 1.02261 11.1416 1.4248 10.8031C1.827 10.4646 2.29239 10.2093 2.794 10.052L33.943 0.187C34.9541 -0.131631 36.0504 -0.0363451 36.9914 0.451969C37.9324 0.940283 38.6414 1.78178 38.963 2.792L39.04 3.034C39.049 3.036 39.058 3.037 39.066 3.04L61.206 10.053C61.7072 10.2103 62.1722 10.4654 62.5742 10.8035C62.9762 11.1417 63.3072 11.5561 63.548 12.023C64.04 12.973 64.133 14.055 63.81 15.073ZM48.444 54.75L36.416 58.559L44.978 61.271C45.3152 61.3777 45.681 61.3463 45.9951 61.1835C46.3091 61.0208 46.5457 60.7401 46.653 60.403L48.444 54.75ZM51.037 49.732L36.421 3.598C36.3142 3.26106 36.078 2.98029 35.7643 2.81736C35.4506 2.65442 35.0851 2.62264 34.748 2.729L3.6 12.595C3.26 12.702 2.983 12.935 2.819 13.252C2.73781 13.4073 2.68823 13.5771 2.67313 13.7517C2.65802 13.9263 2.67769 14.1021 2.731 14.269L17.347 60.402C17.569 61.103 18.32 61.492 19.021 61.271L31.561 57.299C31.589 57.289 31.617 57.279 31.646 57.272L50.169 51.405C50.509 51.298 50.786 51.065 50.949 50.748C51.114 50.432 51.145 50.071 51.037 49.731V49.732ZM48.497 32.885L53.446 17.265L42.445 13.781L48.497 32.885ZM61.18 13.25C61.0998 13.0945 60.9895 12.9565 60.8556 12.8439C60.7218 12.7313 60.5669 12.6464 60.4 12.594L40.023 6.14L41.469 10.701C41.557 10.711 41.645 10.729 41.732 10.757L54.25 14.722C54.584 14.8269 54.894 14.9969 55.1619 15.2223C55.4298 15.4477 55.6504 15.7239 55.811 16.035C55.9734 16.3456 56.0725 16.6852 56.1027 17.0344C56.1329 17.3835 56.0936 17.7352 55.987 18.069L49.895 37.297L51.933 43.731L61.268 14.267C61.375 13.927 61.344 13.567 61.18 13.25ZM30.94 23.336C31.5152 23.6323 32.0258 24.0398 32.4424 24.5349C32.859 25.0299 33.1733 25.6027 33.367 26.22C33.5724 26.8654 33.6329 27.5483 33.5443 28.2198C33.4556 28.8913 33.2199 29.535 32.854 30.105L29.641 35.126C29.3916 35.5142 29.0488 35.8336 28.644 36.0552C28.2393 36.2767 27.7854 36.3932 27.324 36.394C26.97 36.394 26.616 36.326 26.284 36.19L20.765 33.936C20.1377 33.6806 19.5744 33.29 19.1154 32.792C18.6563 32.2941 18.3127 31.701 18.109 31.055C17.9118 30.4388 17.8388 29.7897 17.8943 29.1451C17.9497 28.5006 18.1325 27.8734 18.432 27.3C18.7284 26.7249 19.1359 26.2142 19.6309 25.7976C20.1259 25.3811 20.6987 25.0668 21.316 24.873C22.3838 24.5378 23.5337 24.5745 24.578 24.977C25.1998 24.0462 26.1188 23.3539 27.185 23.013C27.8012 22.8161 28.4503 22.7433 29.0948 22.7987C29.7393 22.8541 30.3665 23.0368 30.94 23.336ZM30.825 27.025C30.736 26.742 30.5918 26.4795 30.4008 26.2526C30.2098 26.0257 29.9757 25.8389 29.712 25.703C29.449 25.5656 29.1614 25.4818 28.8658 25.4564C28.5702 25.431 28.2725 25.4645 27.99 25.555C27.6177 25.6716 27.2823 25.8833 27.0168 26.1692C26.7513 26.455 26.5649 26.8051 26.476 27.185C26.422 27.4083 26.3113 27.6139 26.1546 27.7819C25.998 27.9499 25.8006 28.0747 25.5815 28.1441C25.3625 28.2135 25.1293 28.2251 24.9044 28.178C24.6796 28.1309 24.4707 28.0265 24.298 27.875C24.0063 27.6158 23.6522 27.4371 23.2705 27.3565C22.8887 27.2758 22.4926 27.296 22.121 27.415C21.838 27.5042 21.5755 27.6487 21.3487 27.8401C21.122 28.0315 20.9354 28.266 20.8 28.53C20.6627 28.793 20.5789 29.0806 20.5535 29.3762C20.5281 29.6718 20.5616 29.9694 20.652 30.252C20.827 30.805 21.237 31.249 21.775 31.469L27.293 33.723C27.3114 33.731 27.3321 33.7317 27.351 33.725C27.3696 33.7194 27.3856 33.7074 27.396 33.691L30.609 28.669C30.923 28.179 31.002 27.581 30.826 27.027L30.825 27.025ZM44.172 40.932C44.2787 41.2656 44.3182 41.6171 44.2882 41.966C44.2581 42.315 44.1592 42.6545 43.997 42.965C43.8365 43.2764 43.6158 43.5529 43.3476 43.7785C43.0795 44.004 42.7693 44.1742 42.435 44.279L21.24 50.994C20.5658 51.2062 19.835 51.1426 19.2076 50.817C18.5803 50.4914 18.1075 49.9305 17.893 49.257L8.013 18.07C7.90618 17.7362 7.86664 17.3846 7.89668 17.0355C7.92672 16.6863 8.02574 16.3466 8.188 16.036C8.34855 15.7249 8.56917 15.4487 8.8371 15.2233C9.10504 14.9979 9.41497 14.8279 9.749 14.723L30.945 8.009C31.6193 7.79619 32.3505 7.85955 32.9782 8.18519C33.6058 8.51083 34.0787 9.07215 34.293 9.746L44.172 40.932ZM41.63 41.737L31.75 10.551L21.978 13.645L10.553 17.264L20.433 48.45L41.63 41.737Z" fill="#3172B9"/>
</svg>
