<svg width="86" height="64" viewBox="0 0 86 64" fill="none" xmlns="http://www.w3.org/2000/svg">
<path d="M79.622 20.2719C79.622 22.3359 79.316 24.352 78.726 26.27H83.868C85.045 26.27 86 27.2269 86 28.406C86 29.586 85.045 30.541 83.868 30.541H77.47C77.268 30.541 77.073 30.513 76.888 30.461C76.0053 31.9742 74.9311 33.3674 73.692 34.6059L44.972 63.374C44.7741 63.5724 44.539 63.7299 44.2802 63.8374C44.0213 63.9449 43.7438 64.0002 43.4635 64.0002C43.1832 64.0002 42.9057 63.9449 42.6468 63.8374C42.388 63.7299 42.1529 63.5724 41.955 63.374L13.233 34.6059C12.1963 33.5687 11.2752 32.422 10.486 31.186C10.315 31.23 10.136 31.254 9.95 31.254H2.132C1.85176 31.2537 1.57431 31.1982 1.31551 31.0907C1.0567 30.9833 0.821595 30.8258 0.623621 30.6275C0.425646 30.4292 0.268677 30.1938 0.161676 29.9347C0.0546755 29.6757 -0.000261829 29.3982 9.38171e-07 29.118C9.38171e-07 27.938 0.955001 26.982 2.132 26.982H8.447C5.965 19.861 7.56 11.618 13.233 5.93795C15.1066 4.05009 17.3363 2.55307 19.793 1.53374C22.2497 0.514412 24.8843 -0.00693446 27.544 -4.95154e-05C32.95 -4.95154e-05 38.034 2.10895 41.856 5.93795L43.463 7.54695L45.07 5.93695C46.9438 4.04915 49.1737 2.55225 51.6306 1.53309C54.0874 0.513926 56.7222 -0.00719783 59.382 -4.95154e-05C62.0417 -0.0068791 64.6763 0.514492 67.133 1.53382C69.5896 2.55315 71.8194 4.05014 73.693 5.93795C75.5791 7.81714 77.0741 10.0514 78.0918 12.5117C79.1094 14.972 79.6295 17.6095 79.622 20.2719ZM70.678 8.95695C69.1987 7.46691 67.4383 6.28542 65.4989 5.48101C63.5595 4.67661 61.4796 4.2653 59.38 4.27095C57.2807 4.26557 55.2012 4.677 53.2622 5.4814C51.3231 6.2858 49.563 7.46715 48.084 8.95695L44.969 12.077C44.7713 12.2754 44.5364 12.4328 44.2777 12.5403C44.019 12.6477 43.7416 12.703 43.4615 12.703C43.1814 12.703 42.904 12.6477 42.6453 12.5403C42.3866 12.4328 42.1517 12.2754 41.954 12.077L38.84 8.95695C37.3608 7.46712 35.6005 6.28576 33.6613 5.48136C31.7221 4.67697 29.6424 4.26555 27.543 4.27095C25.4437 4.2654 23.3642 4.67676 21.4251 5.48117C19.486 6.28557 17.7259 7.46701 16.247 8.95695C11.173 14.04 10.232 21.718 13.425 27.763H28.236L33.538 16.479C33.783 15.959 34.277 15.634 34.891 15.663C35.1717 15.6763 35.4421 15.7726 35.6681 15.9395C35.8942 16.1064 36.0657 16.3366 36.161 16.601L44.051 38.4869L50.542 20.1679C50.6364 19.9007 50.8086 19.6677 51.0365 19.4992C51.2643 19.3306 51.5374 19.234 51.8206 19.222C52.1038 19.2099 52.3842 19.2829 52.6255 19.4316C52.8669 19.5802 53.0583 19.7976 53.175 20.056L56.351 27.051H73.852C76.612 21.125 75.554 13.842 70.677 8.95695H70.678ZM16.248 31.586L43.463 58.844L70.678 31.586C71.2253 31.038 71.7323 30.4511 72.195 29.83H55.736C55.179 29.83 54.373 29.573 54.143 29.0639L52.046 24.444L45.404 43.1889C45.204 43.755 44.67 44.135 44.069 44.136H44.066C43.466 44.136 42.933 43.7599 42.729 43.1959L34.653 20.798L30.426 29.794C30.192 30.292 29.99 30.541 29.439 30.541H15.293C15.593 30.901 15.912 31.249 16.248 31.586Z" fill="#3172B9"/>
</svg>
