<svg width="14" height="17" viewBox="0 0 14 17" fill="none" xmlns="http://www.w3.org/2000/svg">
<path d="M7.18999 16.967C7.06678 17.0109 6.93221 17.0109 6.80899 16.967C-0.171006 14.498 -0.062006 8.64901 0.017994 4.37701C0.025994 3.91801 0.033994 3.48401 0.033994 3.06501C0.0326613 2.9087 0.0934112 2.75825 0.202905 2.6467C0.3124 2.53514 0.461689 2.47159 0.617994 2.47001C3.11199 2.47001 5.00999 1.73801 6.59299 0.16801C6.64632 0.114523 6.70967 0.0720851 6.77943 0.043129C6.84918 0.0141728 6.92397 -0.000732422 6.99949 -0.000732422C7.07502 -0.000732422 7.1498 0.0141728 7.21956 0.043129C7.28932 0.0720851 7.35267 0.114523 7.40599 0.16801C8.98899 1.73801 10.888 2.47001 13.383 2.47001C13.5391 2.47186 13.6882 2.53552 13.7974 2.64705C13.9067 2.75858 13.9673 2.90887 13.966 3.06501C13.966 3.48501 13.974 3.91801 13.983 4.37701C14.063 8.64801 14.172 14.498 7.19099 16.967H7.18999ZM12.817 4.40001C12.812 4.14201 12.807 3.89201 12.805 3.64801C10.467 3.54701 8.59899 2.82501 6.99999 1.40301C5.39999 2.82501 3.53299 3.54701 1.19699 3.64801L1.18399 4.40001C1.10399 8.69401 1.01399 13.555 6.99999 15.774C12.987 13.554 12.897 8.69401 12.816 4.40001H12.817ZM9.83299 6.43301C9.94259 6.54575 10.0039 6.69678 10.0039 6.85401C10.0039 7.01124 9.94259 7.16227 9.83299 7.27501L6.60599 10.567C6.55247 10.6223 6.48837 10.6663 6.41751 10.6963C6.34664 10.7264 6.27046 10.7419 6.19349 10.7419C6.11653 10.7419 6.04034 10.7264 5.96948 10.6963C5.89862 10.6663 5.83452 10.6223 5.78099 10.567L4.16699 8.92001C4.05717 8.80739 3.9957 8.65631 3.9957 8.49901C3.9957 8.3417 4.05717 8.19063 4.16699 8.07801C4.22059 8.02282 4.28471 7.97895 4.35557 7.94899C4.42642 7.91903 4.50257 7.9036 4.57949 7.9036C4.65642 7.9036 4.73257 7.91903 4.80342 7.94899C4.87428 7.97895 4.9384 8.02282 4.99199 8.07801L6.19299 9.30401L9.00799 6.43201C9.06159 6.37682 9.12571 6.33295 9.19657 6.30299C9.26742 6.27303 9.34357 6.2576 9.42049 6.2576C9.49742 6.2576 9.57357 6.27303 9.64442 6.30299C9.71528 6.33295 9.7794 6.37682 9.83299 6.43201V6.43301Z" fill="#787878"/>
</svg>
