<svg width="25" height="21" viewBox="0 0 25 21" fill="none" xmlns="http://www.w3.org/2000/svg">
<path d="M22.1667 0.833252H2.83335C1.50419 0.833252 0.416687 1.92075 0.416687 3.24992V17.7499C0.416687 19.0791 1.50419 20.1666 2.83335 20.1666H22.1667C23.4959 20.1666 24.5834 19.0791 24.5834 17.7499V3.24992C24.5834 1.92075 23.4959 0.833252 22.1667 0.833252ZM21.6834 5.96867L13.7809 10.9108C12.9954 11.4062 12.0046 11.4062 11.2192 10.9108L3.31669 5.96867C3.0146 5.77533 2.83335 5.44909 2.83335 5.09867C2.83335 4.28909 3.71544 3.80575 4.40419 4.22867L12.5 9.29158L20.5959 4.22867C21.2846 3.80575 22.1667 4.28909 22.1667 5.09867C22.1667 5.44909 21.9854 5.77533 21.6834 5.96867Z" fill="#1C1C1C"/>
</svg>
