<svg width="17" height="24" viewBox="0 0 17 24" fill="none" xmlns="http://www.w3.org/2000/svg">
<path d="M8.50001 0.416748C3.82376 0.416748 0.0416718 4.19883 0.0416718 8.87508C0.0416718 13.9138 5.38251 20.8617 7.58167 23.508C8.06501 24.088 8.94709 24.088 9.43042 23.508C11.6175 20.8617 16.9583 13.9138 16.9583 8.87508C16.9583 4.19883 13.1763 0.416748 8.50001 0.416748ZM8.50001 11.8959C6.83251 11.8959 5.47917 10.5426 5.47917 8.87508C5.47917 7.20758 6.83251 5.85425 8.50001 5.85425C10.1675 5.85425 11.5208 7.20758 11.5208 8.87508C11.5208 10.5426 10.1675 11.8959 8.50001 11.8959Z" fill="#1C1C1C"/>
</svg>
